<?xml version="1.0" encoding="utf-8"?>
<!-- Generator: Adobe Illustrator 24.3.0, SVG Export Plug-In . SVG Version: 6.00 Build 0)  -->
<svg version="1.1" id="Layer_1" xmlns="http://www.w3.org/2000/svg" xmlns:xlink="http://www.w3.org/1999/xlink" x="0px" y="0px"
	 viewBox="0 0 50.4 50.4" style="enable-background:new 0 0 50.4 50.4;" xml:space="preserve">
<style type="text/css">
	.st0{fill:#4666A9;}
	.st1{fill:#FFFFFF;}
	.st2{fill:#020202;}
	.st3{fill:none;stroke:#000000;stroke-miterlimit:10;}
	.st4{fill:url(#SVGID_1_);}
	.st5{fill:none;stroke:#FFFFFF;stroke-width:2.6663;stroke-miterlimit:10;}
	.st6{fill:none;stroke:#FFFFFF;stroke-width:3.2589;stroke-miterlimit:10;}
</style>
<polyline class="st0" points="272.11,-54.2 2729.22,-54.2 2729.22,868.31 272.11,868.31 "/>
<path class="st1" d="M1565.51,403.34c-16.49,0-28.36,5.4-40.41,10.89v124.39c11.55,1.13,18.14,1.13,29.11,1.13
	c39.57,0,44.98-18.11,44.98-43.36v-59.43C1599.19,418.32,1593,403.34,1565.51,403.34 M1302.83,396.55
	c-27.45,0-33.7,15.04-33.7,33.68v10.46h67.38v-10.46C1336.5,411.59,1330.24,396.55,1302.83,396.55 M793.95,526.05
	c0,14.73,6.96,22.38,22.33,22.38c16.5,0,26.25-5.36,38.29-10.89v-29.49h-36.06C801.44,508.05,793.95,511.21,793.95,526.05
	 M1821.06,403.34c-27.49,0-37.01,14.98-37.01,33.61v68.08c0,18.7,9.52,33.71,37.01,33.71c27.41,0,37.01-15.01,37.01-33.71v-68.08
	C1858.07,418.32,1848.46,403.34,1821.06,403.34 M659.23,602.35h-80.8V407.04h-40.39v-67.32h40.39v-40.41
	c0-54.91,22.8-87.57,87.56-87.57h53.93v67.32h-33.69c-25.22,0-26.89,9.41-26.89,26.96l-0.1,33.69h61.08l-7.15,67.32h-53.93V602.35z
	 M935.4,602.86h-67.35l-2.9-17.01c-30.76,17.01-58.21,19.77-76.3,19.77c-49.4,0-75.69-32.95-75.69-78.53
	c0-53.75,30.68-72.94,85.56-72.94h55.86v-11.62c0-27.46-3.15-35.5-45.41-35.5h-69.1l6.76-67.32h75.52
	c92.73,0,113.06,29.27,113.06,103.36V602.86z M1164.42,411.97c-41.91-7.17-53.94-8.76-74.11-8.76c-36.22,0-47.17,8-47.17,38.69
	v58.12c0,30.73,10.94,38.72,47.17,38.72c20.16,0,32.19-1.59,74.11-8.79v65.64c-36.72,8.24-60.62,10.4-80.84,10.4
	c-86.76,0-121.23-45.56-121.23-111.39v-47.15c0-65.88,34.47-111.52,121.23-111.52c20.21,0,44.12,2.18,80.84,10.42V411.97z
	 M1417.3,494.59h-148.17v5.43c0,30.73,10.95,38.72,47.16,38.72c32.57,0,52.43-1.59,94.25-8.79v65.64
	c-40.33,8.24-61.35,10.4-100.95,10.4c-86.76,0-121.27-45.56-121.27-111.39v-53.91c0-57.58,25.62-104.76,114.5-104.76
	c88.91,0,114.47,46.63,114.47,104.76V494.59z M1679.98,495.83c0,63.62-18.2,110.03-128.5,110.03c-39.8,0-63.2-3.51-107.16-10.27
	V231.95l80.78-13.45v127.19c17.46-6.48,40.06-9.77,60.62-9.77c80.81,0,94.25,36.18,94.25,94.3V495.83z M1938.94,497.23
	c0,54.88-22.69,108.11-117.62,108.11c-94.98,0-118.09-53.23-118.09-108.11v-52.99c0-54.9,23.11-108.13,118.09-108.13
	c94.92,0,117.62,53.24,117.62,108.13V497.23z M2197.69,497.23c0,54.88-22.71,108.11-117.6,108.11
	c-94.98,0-118.11-53.23-118.11-108.11v-52.99c0-54.9,23.12-108.13,118.11-108.13c94.89,0,117.6,53.24,117.6,108.13V497.23z
	 M2463.28,602.35h-87.59l-74.05-123.44v123.44h-80.8V231.95l80.8-13.45v238.45l74.05-117.23h87.59l-80.86,127.93L2463.28,602.35z
	 M2079.81,403.34c-27.44,0-36.96,14.98-36.96,33.61v68.08c0,18.7,9.52,33.71,36.96,33.71c27.41,0,37.1-15.01,37.1-33.71v-68.08
	C2116.91,418.32,2107.22,403.34,2079.81,403.34"/>
<path class="st2" d="M28.64-11.46h-7.95v-16.98h-5.61v-7.62h5.66c0-0.1,0-0.19,0-0.29c0-0.58,0-1.16,0-1.74c0-1.31,0-2.66,0.11-4
	c0.21-3.35,2.52-6.2,5.75-7.1c2-0.49,4.08-0.62,6.13-0.37l1.16,0.07c0.23,0,0.46,0,0.7,0.08l0.73,0.09v6.86H33.4h-0.82
	c-0.72,0-1.46,0-2.17,0.1c-1.09,0.11-1.59,0.56-1.67,1.5c-0.09,1.2-0.07,2.39,0,3.65c0,0.38,0,0.76,0,1.15h6.45l-0.25,1.9
	c-0.21,1.68-0.43,3.31-0.66,4.95c-0.13,0.45-0.53,0.76-1,0.78c-0.8,0-1.61,0-2.42,0h-2.23V-11.46z M21.69-12.46h5.95v-16.95h3.28
	c0.8,0,1.59,0,2.39,0l0,0c0.23-1.59,0.43-3.19,0.64-4.83l0.1-0.77h-6.34v-0.55c0-0.55,0-1.09,0-1.63c0-1.29,0-2.5,0.05-3.75
	c0.04-1.37,1.19-2.45,2.56-2.42c0.75-0.08,1.52-0.09,2.26-0.1h0.81h0.94v-5h-0.47l-1.19-0.1c-1.93-0.24-3.89-0.13-5.78,0.33
	c-2.82,0.8-4.82,3.3-5,6.22c-0.09,1.3-0.1,2.64-0.11,3.93c0,0.58,0,1.17,0,1.75c0,0.16,0,0.33,0,0.51v0.76h-5.7v5.62h5.62
	L21.69-12.46z"/>
<path class="st2" d="M39.95-54.93c4.75,0.01,8.59,3.85,8.6,8.6v29.53c-0.01,4.75-3.85,8.59-8.6,8.6H10.44
	c-4.75-0.01-8.59-3.85-8.6-8.6v-29.52c0.01-4.75,3.85-8.59,8.6-8.6h29.52 M39.95-55.92H10.44c-5.31-0.01-9.61,4.29-9.62,9.6
	c0,0,0,0,0,0v29.52c0,5.31,4.3,9.61,9.61,9.61l0,0h29.53c5.31,0,9.61-4.3,9.61-9.61l0,0v-29.52c0.01-5.31-4.29-9.61-9.6-9.62
	c0,0-0.01,0-0.01,0V-55.92z"/>
<path class="st2" d="M-59.62-7.2c-6.86,0.02-12.43-5.51-12.46-12.37l-0.05-23.85c-0.03-6.85,5.49-12.43,12.34-12.46
	c0.01,0,0.02,0,0.03,0l23.85-0.06c6.85-0.01,12.42,5.52,12.46,12.37l0.07,23.85c0.01,6.86-5.52,12.43-12.38,12.47L-59.62-7.2z
	 M-35.87-54.96l-23.89,0.07c-6.31,0.02-11.41,5.14-11.39,11.45c0,0,0,0.01,0,0.01l0.06,23.86c0.02,6.3,5.13,11.39,11.43,11.39
	l23.9-0.06c6.31-0.04,11.4-5.16,11.39-11.47l-0.07-23.86C-24.47-49.87-29.57-54.96-35.87-54.96z M-59.63-10.45
	c-5.06,0.02-9.17-4.06-9.19-9.12l-0.06-18.44h13.37l-0.74,0.82c-4.2,4.69-3.79,11.9,0.9,16.1s11.9,3.79,16.1-0.9
	c3.87-4.33,3.87-10.87,0-15.19l-0.74-0.82h13.3v18.31c0.01,5.03-4.04,9.14-9.07,9.19L-59.63-10.45z M-67.88-37.02l0.04,17.45
	c0.02,4.5,3.67,8.14,8.17,8.15l23.91-0.07c4.51-0.02,8.16-3.69,8.15-8.2v-17.33h-10.25c4.11,5.47,3.01,13.24-2.46,17.35
	s-13.24,3.01-17.35-2.46c-3.31-4.41-3.31-10.48,0-14.89L-67.88-37.02z M-47.76-20.46c-5.04,0-9.13-4.09-9.13-9.13
	c0-5.04,4.09-9.13,9.13-9.13c5.04,0,9.13,4.09,9.13,9.13c0,0.01,0,0.01,0,0.02l0,0C-38.64-24.54-42.72-20.46-47.76-20.46z
	 M-47.76-37.73c-1.11,0-2.21,0.22-3.23,0.67c-4.13,1.78-6.03,6.58-4.24,10.7s6.58,6.03,10.7,4.24c2.97-1.29,4.9-4.21,4.91-7.45l0,0
	C-39.62-34.07-43.26-37.72-47.76-37.73z M-30.76-40.97h-5.34c-0.42-0.01-0.76-0.35-0.77-0.77v-5.38c0.01-0.42,0.35-0.76,0.77-0.77
	h3.83c1.28,0,2.31,1.03,2.31,2.31c0,0,0,0.01,0,0.01v3.83c-0.01,0.43-0.36,0.78-0.79,0.77C-30.75-40.97-30.76-40.97-30.76-40.97z
	 M-35.92-41.97h4.94v-3.6c-0.01-0.73-0.59-1.31-1.32-1.32h-3.59L-35.92-41.97z"/>
<g>
	<g>
		<path class="st0" d="M49.59,38.88c0,5.89-4.75,10.67-10.61,10.67H11.42c-5.86,0-10.61-4.78-10.61-10.67V11.52
			c0-5.89,4.75-10.67,10.61-10.67h27.56c5.86,0,10.61,4.78,10.61,10.67V38.88z"/>
	</g>
	<path class="st1" d="M34.13,17.95c0-1.54,1.25-2.78,2.78-2.78h4.75V8.49c0,0-3.95-0.27-5.68-0.27c-9.49,0-9.49,8.17-9.49,9.99v5.18
		h-6.22v7.31h6.22v18.85h7.63V30.7h6.4l0.91-7.31h-7.31v-5.18V17.95z"/>
</g>
<g>
	<g>
		<path class="st3" d="M49.59,95.61c0,5.89-4.75,10.67-10.61,10.67H11.42c-5.86,0-10.61-4.78-10.61-10.67V68.26
			c0-5.89,4.75-10.67,10.61-10.67h27.56c5.86,0,10.61,4.78,10.61,10.67V95.61z"/>
	</g>
	<path class="st3" d="M34.13,74.69c0-1.54,1.25-2.78,2.78-2.78h4.75v-6.67c0,0-3.95-0.27-5.68-0.27c-9.49,0-9.49,8.17-9.49,9.99
		v5.18h-6.22v7.31h6.22v18.85h7.63V87.43h6.4l0.91-7.31h-7.31v-5.18V74.69z"/>
</g>
<g>
	<g>
		<radialGradient id="SVGID_1_" cx="-57.9981" cy="49.4223" r="49.1821" gradientUnits="userSpaceOnUse">
			<stop  offset="0" style="stop-color:#FFD776"/>
			<stop  offset="0.2463" style="stop-color:#F3A554"/>
			<stop  offset="0.3793" style="stop-color:#F15C3C"/>
			<stop  offset="0.5394" style="stop-color:#D94867"/>
			<stop  offset="0.6995" style="stop-color:#C32F87"/>
			<stop  offset="0.9122" style="stop-color:#7D63A7"/>
			<stop  offset="0.9852" style="stop-color:#5C6CB3"/>
		</radialGradient>
		<path class="st4" d="M-23.39,38.88c0,5.89-4.75,10.67-10.61,10.67h-27.56c-5.86,0-10.61-4.78-10.61-10.67V11.52
			c0-5.89,4.75-10.67,10.61-10.67h27.56c5.86,0,10.61,4.78,10.61,10.67V38.88z"/>
		<g>
			<path class="st5" d="M-31.41,33.05c0,5.01-4.06,9.07-9.07,9.07H-55.1c-5.01,0-9.07-4.06-9.07-9.07V17.45
				c0-5.01,4.06-9.07,9.07-9.07h14.63c5.01,0,9.07,4.06,9.07,9.07V33.05z"/>
			<circle class="st1" cx="-37.88" cy="15.26" r="2.26"/>
		</g>
	</g>
	<circle class="st6" cx="-47.78" cy="25.2" r="7.99"/>
</g>
<g>
	<path class="st3" d="M-23.39,95.61c0,5.89-4.75,10.67-10.61,10.67h-27.56c-5.86,0-10.61-4.78-10.61-10.67V68.26
		c0-5.89,4.75-10.67,10.61-10.67h27.56c5.86,0,10.61,4.78,10.61,10.67V95.61z"/>
	<g>
		<path class="st3" d="M-31.41,89.79c0,5.01-4.06,9.07-9.07,9.07H-55.1c-5.01,0-9.07-4.06-9.07-9.07V74.18
			c0-5.01,4.06-9.07,9.07-9.07h14.63c5.01,0,9.07,4.06,9.07,9.07V89.79z"/>
		<circle class="st3" cx="-37.88" cy="71.99" r="2.26"/>
	</g>
	<circle class="st3" cx="-47.78" cy="81.94" r="7.99"/>
</g>
</svg>
